<svg width="32" height="32" viewBox="0 0 32 32" fill="none" xmlns="http://www.w3.org/2000/svg">
<path fill-rule="evenodd" clip-rule="evenodd" d="M17.3432 0.0305416C18.1271 0.00160196 19.5678 -0.0635122 20.2549 0.173537C20.7052 0.328024 21.0524 0.668916 21.1508 1.1494C21.2803 1.78181 21.1917 2.54829 21.1917 3.24497C21.1917 4.59492 21.2403 6.14744 21.2122 7.45568C21.1977 8.12385 21.2744 8.87883 21.1508 9.4904C21.0511 9.98407 20.7943 10.2752 20.4177 10.4871C19.9968 10.7233 19.5256 10.725 18.9518 10.7305C17.8953 10.7412 16.5777 10.6701 15.6124 10.7514C13.6677 10.9152 12.2129 11.9749 11.4175 13.4164C10.7726 14.5859 10.566 16.1984 11.0512 17.6067C11.4589 18.7902 12.3279 19.7878 13.3929 20.4147C14.1188 20.8411 14.9465 21.1526 16.081 21.1471C17.2521 21.1403 18.0568 20.8015 18.7486 20.3742C20.1672 19.4967 21.0891 18.1233 21.2331 15.9805C21.3008 14.9715 21.2203 13.845 21.2331 12.644C21.2441 11.56 21.651 10.8186 22.7194 10.6905C23.7243 10.571 24.9955 10.6705 26.1197 10.6705C27.1434 10.6705 28.2902 10.6505 29.4591 10.6497C29.9865 10.6497 30.6358 10.619 31.0473 10.7718C31.4967 10.9399 31.8592 11.3327 31.9436 11.8907C32.0305 12.4669 31.9845 13.1542 31.9845 13.8441C31.9845 15.1357 31.9841 16.5397 31.9845 17.9131C31.9845 18.6319 32.0305 19.326 31.964 19.947C31.8673 20.8488 31.2449 21.2603 30.2532 21.2893C28.5973 21.3382 26.5372 21.1165 25.1625 21.4931C24.4766 21.6799 23.8772 22.0153 23.3912 22.3885C22.3607 23.1788 21.6395 24.1692 21.3954 25.7242C21.2769 26.4797 21.294 27.3959 21.2731 28.2671C21.2522 29.1434 21.4431 30.4167 21.1099 31.0947C20.8756 31.5718 20.4075 31.8795 19.7254 31.9492C19.0566 32.0182 18.3192 32.0084 17.5669 31.9701C16.0827 31.8943 14.6726 31.8629 13.4334 31.6441C10.9541 31.207 8.87985 30.2452 7.07999 29.0808C5.35766 27.9671 3.76058 26.3792 2.6206 24.6262C1.90193 23.5206 1.21905 22.2855 0.767492 20.9032C0.676753 20.6249 0.649063 20.3198 0.563863 20.0078C0.408798 19.4401 0.242657 18.806 0.156605 18.1974C-0.245967 15.3579 0.166403 12.5495 0.950673 10.4062C1.73622 8.25918 2.99719 6.42535 4.41194 4.95411C5.8859 3.42286 7.66872 2.23463 9.72759 1.35283C10.7828 0.900858 11.9096 0.543369 13.1484 0.315256C14.4221 0.0811859 15.8526 0.0862929 17.3432 0.0305416Z" fill="#14B8A6"/>
</svg>
