<svg width="70" height="30" viewBox="0 0 70 30" fill="none" xmlns="http://www.w3.org/2000/svg">
<g clip-path="url(#clip0_47_6791)">
<path fill-rule="evenodd" clip-rule="evenodd" d="M11.3816 4.52008C11.896 4.50109 12.8415 4.45835 13.2924 4.61392C13.5879 4.71531 13.8158 4.93902 13.8804 5.25435C13.9654 5.66938 13.9072 6.17239 13.9072 6.6296C13.9072 7.51553 13.9391 8.5344 13.9206 9.39296C13.9111 9.83145 13.9614 10.3269 13.8804 10.7283C13.8149 11.0523 13.6464 11.2433 13.3992 11.3824C13.123 11.5374 12.8138 11.5385 12.4372 11.5421C11.7439 11.5491 10.8792 11.5025 10.2457 11.5558C8.96941 11.6634 8.01468 12.3588 7.49272 13.3048C7.06945 14.0723 6.93386 15.1305 7.25229 16.0547C7.51984 16.8315 8.09016 17.4861 8.78909 17.8975C9.26548 18.1774 9.80869 18.3818 10.5532 18.3782C11.3217 18.3737 11.8498 18.1514 12.3039 17.871C13.2348 17.2951 13.8398 16.3938 13.9343 14.9875C13.9788 14.3253 13.9259 13.586 13.9343 12.7979C13.9416 12.0865 14.2086 11.6 14.9097 11.5159C15.5693 11.4374 16.4035 11.5028 17.1413 11.5028C17.8131 11.5028 18.5657 11.4896 19.3328 11.4891C19.679 11.4891 20.105 11.469 20.3751 11.5692C20.67 11.6796 20.9079 11.9373 20.9633 12.3035C21.0203 12.6817 20.9901 13.1327 20.9901 13.5855C20.9901 14.4331 20.9899 15.3545 20.9901 16.2558C20.9901 16.7276 21.0203 17.1831 20.9767 17.5906C20.9133 18.1824 20.5048 18.4525 19.854 18.4715C18.7673 18.5036 17.4153 18.3581 16.5131 18.6053C16.063 18.7279 15.6696 18.948 15.3506 19.1929C14.6743 19.7116 14.201 20.3615 14.0408 21.382C13.9631 21.8778 13.9743 22.4791 13.9606 23.0508C13.9469 23.6259 14.0721 24.4615 13.8535 24.9065C13.6998 25.2196 13.3925 25.4215 12.9449 25.4673C12.506 25.5125 12.0221 25.5061 11.5283 25.481C10.5543 25.4313 9.62892 25.4106 8.81565 25.267C7.18854 24.9802 5.82731 24.349 4.64612 23.5848C3.51582 22.8539 2.4677 21.8119 1.71957 20.6614C1.24793 19.9358 0.799781 19.1253 0.503436 18.2182C0.443887 18.0355 0.425715 17.8352 0.369801 17.6305C0.268037 17.2579 0.159004 16.8418 0.102531 16.4424C-0.161664 14.5789 0.108961 12.7359 0.623652 11.3293C1.13918 9.92027 1.96671 8.71678 2.89517 7.75126C3.86248 6.74635 5.03249 5.96655 6.38366 5.38785C7.07616 5.09124 7.81562 4.85663 8.62862 4.70693C9.46453 4.55331 10.4033 4.55667 11.3816 4.52008Z" fill="#14B8A6"/>
</g>
<path d="M30.1435 5.81818V24H25.2429V5.81818H30.1435ZM32.6404 24V10.3636H37.5409V24H32.6404ZM35.0906 8.94318C34.4278 8.94318 33.8596 8.72419 33.3861 8.28622C32.9126 7.84825 32.6759 7.3215 32.6759 6.70597C32.6759 6.09044 32.9126 5.56368 33.3861 5.12571C33.8596 4.68774 34.4278 4.46875 35.0906 4.46875C35.7594 4.46875 36.3276 4.68774 36.7952 5.12571C37.2687 5.56368 37.5054 6.09044 37.5054 6.70597C37.5054 7.3215 37.2687 7.84825 36.7952 8.28622C36.3276 8.72419 35.7594 8.94318 35.0906 8.94318ZM44.9739 24.1776C44.0033 24.1776 43.1096 23.9231 42.2928 23.4141C41.4819 22.9051 40.8309 22.1327 40.3397 21.0969C39.8543 20.0612 39.6117 18.7562 39.6117 17.1818C39.6117 15.5365 39.8662 14.1989 40.3752 13.169C40.8901 12.1392 41.553 11.3846 42.3638 10.9052C43.1806 10.4258 44.0388 10.1861 44.9384 10.1861C45.6131 10.1861 46.205 10.3045 46.714 10.5412C47.223 10.772 47.6491 11.0827 47.9924 11.4734C48.3356 11.8581 48.5961 12.2812 48.7736 12.7429H48.8446V5.81818H53.7452V24H48.8801V21.7628H48.7736C48.5842 22.2244 48.312 22.6387 47.9569 23.0057C47.6077 23.3667 47.1815 23.6538 46.6784 23.8668C46.1813 24.074 45.6131 24.1776 44.9739 24.1776ZM46.785 20.4134C47.2348 20.4134 47.6195 20.2831 47.9391 20.0227C48.2646 19.7564 48.5132 19.3835 48.6848 18.9041C48.8624 18.4188 48.9512 17.8447 48.9512 17.1818C48.9512 16.5071 48.8624 15.93 48.6848 15.4506C48.5132 14.9653 48.2646 14.5954 47.9391 14.3409C47.6195 14.0805 47.2348 13.9503 46.785 13.9503C46.3352 13.9503 45.9505 14.0805 45.6309 14.3409C45.3172 14.5954 45.0745 14.9653 44.9029 15.4506C44.7372 15.93 44.6543 16.5071 44.6543 17.1818C44.6543 17.8565 44.7372 18.4366 44.9029 18.9219C45.0745 19.4013 45.3172 19.7712 45.6309 20.0316C45.9505 20.2861 46.3352 20.4134 46.785 20.4134ZM56.1511 24V10.3636H60.9096V12.956H61.0517C61.3002 11.9972 61.6938 11.2958 62.2324 10.8519C62.7769 10.408 63.4132 10.1861 64.1412 10.1861C64.3542 10.1861 64.5643 10.2038 64.7715 10.2393C64.9846 10.2689 65.1887 10.3133 65.3841 10.3725V14.554C65.1414 14.4711 64.8425 14.409 64.4874 14.3675C64.1323 14.3261 63.8275 14.3054 63.573 14.3054C63.0936 14.3054 62.6615 14.4149 62.2768 14.6339C61.898 14.8469 61.5991 15.1488 61.3801 15.5394C61.1612 15.9241 61.0517 16.3769 61.0517 16.8977V24H56.1511Z" fill="black"/>
<defs>
<clipPath id="clip0_47_6791">
<rect width="21" height="21" fill="white" transform="translate(0 4.5)"/>
</clipPath>
</defs>
</svg>
