<svg width="30" height="30" viewBox="0 0 30 30" fill="none" xmlns="http://www.w3.org/2000/svg">
<path fill-rule="evenodd" clip-rule="evenodd" d="M15.3818 4.02004C15.8962 4.00105 16.8417 3.95832 17.2927 4.11389C17.5882 4.21527 17.816 4.43899 17.8806 4.75431C17.9656 5.16935 17.9074 5.67236 17.9074 6.12957C17.9074 7.01549 17.9393 8.03437 17.9209 8.89292C17.9114 9.33142 17.9617 9.82689 17.8806 10.2282C17.8152 10.5522 17.6466 10.7433 17.3995 10.8823C17.1232 11.0374 16.814 11.0385 16.4375 11.0421C15.7441 11.0491 14.8794 11.0024 14.2459 11.0558C12.9697 11.1633 12.0149 11.8588 11.493 12.8047C11.0697 13.5723 10.9341 14.6305 11.2525 15.5547C11.5201 16.3314 12.0904 16.9861 12.7893 17.3975C13.2657 17.6773 13.8089 17.8818 14.5534 17.8782C15.322 17.8737 15.8501 17.6514 16.3041 17.371C17.2351 16.795 17.8401 15.8938 17.9346 14.4875C17.979 13.8253 17.9262 13.086 17.9346 12.2978C17.9418 11.5865 18.2088 11.0999 18.91 11.0159C19.5695 10.9374 20.4037 11.0027 21.1415 11.0027C21.8133 11.0027 22.5659 10.9896 23.3331 10.989C23.6792 10.989 24.1053 10.9689 24.3753 11.0692C24.6703 11.1795 24.9082 11.4373 24.9635 11.8035C25.0206 12.1816 24.9904 12.6327 24.9904 13.0854C24.9904 13.9331 24.9901 14.8545 24.9904 15.7558C24.9904 16.2275 25.0206 16.6831 24.977 17.0905C24.9135 17.6824 24.505 17.9525 23.8542 17.9714C22.7675 18.0036 21.4155 17.8581 20.5133 18.1052C20.0632 18.2278 19.6699 18.4479 19.3509 18.6929C18.6746 19.2115 18.2013 19.8614 18.0411 20.882C17.9634 21.3777 17.9745 21.9791 17.9608 22.5508C17.9471 23.1259 18.0724 23.9615 17.8538 24.4064C17.7 24.7195 17.3928 24.9215 16.9452 24.9673C16.5062 25.0125 16.0223 25.0061 15.5286 24.9809C14.5545 24.9312 13.6292 24.9106 12.8159 24.767C11.1888 24.4802 9.82756 23.849 8.64637 23.0848C7.51606 22.3539 6.46795 21.3118 5.71982 20.1614C5.24818 19.4358 4.80003 18.6253 4.50368 17.7181C4.44413 17.5355 4.42596 17.3352 4.37004 17.1305C4.26828 16.7579 4.15925 16.3418 4.10277 15.9424C3.83858 14.0789 4.1092 12.2358 4.6239 10.8293C5.13943 9.42023 5.96696 8.21675 6.89541 7.25122C7.86273 6.24631 9.03273 5.46652 10.3839 4.88782C11.0764 4.5912 11.8159 4.3566 12.6289 4.20689C13.4648 4.05328 14.4036 4.05663 15.3818 4.02004Z" fill="#14B8A6"/>
</svg>
